<svg xmlns="http://www.w3.org/2000/svg" xmlns:xlink="http://www.w3.org/1999/xlink" contentStyleType="text/css" data-diagram-type="CLASS" height="1090px" preserveAspectRatio="none" style="width:981px;height:1090px;background:#FFFFFF;" version="1.1" viewBox="0 0 981 1090" width="981px" zoomAndPan="magnify"><title>&lt;b&gt;ERD - &#1662;&#1740;&#1575;&#1605;&#8204;&#1585;&#1587;&#1575;&#1606; &#1587;&#1607;&#1740;&#1605;&lt;/b&gt;</title><defs><filter height="300%" id="f1ky7mzv5846kv" width="300%" x="-1" y="-1"><feGaussianBlur result="blurOut" stdDeviation="2"/><feColorMatrix in="blurOut" result="blurOut2" type="matrix" values="0 0 0 0 0 0 0 0 0 0 0 0 0 0 0 0 0 0 .4 0"/><feOffset dx="4" dy="4" in="blurOut2" result="blurOut3"/><feBlend in="SourceGraphic" in2="blurOut3" mode="normal"/></filter></defs><g><g class="title" data-source-line="58"><text fill="#000000" font-family="sans-serif" font-size="14" font-weight="bold" lengthAdjust="spacing" textLength="157.623" x="403.4933" y="22.9951">ERD - &#1662;&#1740;&#1575;&#1605;&#8204;&#1585;&#1587;&#1575;&#1606; &#1587;&#1607;&#1740;&#1605;</text></g><!--cluster Database Schema--><g class="cluster" data-entity="Database Schema" data-source-line="60" data-uid="ent0002" id="cluster_Database Schema"><path d="M8.5,43.2969 L120.4883,43.2969 A3.75,3.75 0 0 1 122.9883,45.7969 L129.9883,62.1016 L642.5,62.1016 A2.5,2.5 0 0 1 645,64.6016 L645,954.3869 A2.5,2.5 0 0 1 642.5,956.8869 L8.5,956.8869 A2.5,2.5 0 0 1 6,954.3869 L6,45.7969 A2.5,2.5 0 0 1 8.5,43.2969" fill="#F5F5F5" filter="url(#f1ky7mzv5846kv)" style="stroke:#424242;stroke-width:1.5;"/><line style="stroke:#424242;stroke-width:1.5;" x1="6" x2="129.9883" y1="62.1016" y2="62.1016"/><text fill="#000000" font-family="sans-serif" font-size="11" font-weight="bold" lengthAdjust="spacing" textLength="110.9883" x="10" y="55.5073">Database Schema</text></g><!--class User--><g class="entity" data-entity="User" data-source-line="61" data-uid="ent0003" id="entity_User"><rect fill="#FFFFFF" filter="url(#f1ky7mzv5846kv)" height="185.3281" rx="2.5" ry="2.5" style="stroke:#2E7D32;stroke-width:0.5;" width="290.1084" x="21.95" y="74.2969"/><ellipse cx="146.0325" cy="90.9375" fill="#ADD1B2" rx="9" ry="9" style="stroke:#181818;stroke-width:1;"/><path d="M147.9231,94.9375 L142.9388,94.9375 L142.9388,86.9219 L147.9231,86.9219 L147.9231,88.3125 L144.5169,88.3125 L144.5169,90.0469 L147.6106,90.0469 L147.6106,91.4375 L144.5169,91.4375 L144.5169,93.5469 L147.9231,93.5469 L147.9231,94.9375 Z " fill="#000000"/><text fill="#424242" font-family="sans-serif" font-size="10" font-weight="bold" lengthAdjust="spacing" textLength="25.7861" x="167.8611" y="88.5791">User</text><text fill="#424242" font-family="sans-serif" font-size="10" font-weight="bold" lengthAdjust="spacing" textLength="34.4434" x="163.5325" y="100.2197">(&#1705;&#1575;&#1585;&#1576;&#1585;)</text><line style="stroke:#2E7D32;stroke-width:0.5;" x1="22.95" x2="311.0584" y1="107.5781" y2="107.5781"/><ellipse cx="32.95" cy="118.8984" fill="#000000" rx="3" ry="3" style="stroke:#000000;stroke-width:1;"/><text fill="#424242" font-family="sans-serif" font-size="10" lengthAdjust="spacing" textLength="97.0996" x="39.95" y="120.8604">id : BIGINT &#171;PK, AI&#187;</text><line style="stroke:#2E7D32;stroke-width:1;" x1="22.95" x2="311.0584" y1="127.2188" y2="127.2188"/><text fill="#424242" font-family="sans-serif" font-size="10" lengthAdjust="spacing" textLength="190.3809" x="39.95" y="140.501">username : VARCHAR(150) &#171;UNIQUE&#187;</text><text fill="#424242" font-family="sans-serif" font-size="10" lengthAdjust="spacing" textLength="138.4375" x="39.95" y="152.1416">first_name : VARCHAR(100)</text><text fill="#424242" font-family="sans-serif" font-size="10" lengthAdjust="spacing" textLength="136.9336" x="39.95" y="163.7822">last_name : VARCHAR(100)</text><ellipse cx="32.95" cy="173.4609" fill="#000000" rx="3" ry="3" style="stroke:#000000;stroke-width:1;"/><text fill="#424242" font-family="sans-serif" font-size="10" lengthAdjust="spacing" textLength="266.1084" x="39.95" y="175.4229">phone_number : VARCHAR(20) &#171;UNIQUE, NOT NULL&#187;</text><text fill="#424242" font-family="sans-serif" font-size="10" lengthAdjust="spacing" textLength="157.4902" x="39.95" y="187.0635">profile_picture : VARCHAR(255)</text><ellipse cx="32.95" cy="196.7422" fill="#000000" rx="3" ry="3" style="stroke:#000000;stroke-width:1;"/><text fill="#424242" font-family="sans-serif" font-size="10" lengthAdjust="spacing" textLength="121.0449" x="39.95" y="198.7041">created_at : TIMESTAMP</text><ellipse cx="32.95" cy="208.3828" fill="#000000" rx="3" ry="3" style="stroke:#000000;stroke-width:1;"/><text fill="#424242" font-family="sans-serif" font-size="10" lengthAdjust="spacing" textLength="124.3164" x="39.95" y="210.3447">updated_at : TIMESTAMP</text><line style="stroke:#2E7D32;stroke-width:1;" x1="22.95" x2="311.0584" y1="216.7031" y2="216.7031"/><text fill="#424242" font-family="sans-serif" font-size="10" font-weight="bold" lengthAdjust="spacing" textLength="47.9639" x="27.95" y="229.9854">Indexes:</text><text fill="#424242" font-family="sans-serif" font-size="10" lengthAdjust="spacing" textLength="122.1777" x="27.95" y="241.626">idx_user_phone_number</text><text fill="#424242" font-family="sans-serif" font-size="10" lengthAdjust="spacing" textLength="97.0264" x="27.95" y="253.2666">idx_user_username</text></g><!--class OTP--><g class="entity" data-entity="OTP" data-source-line="77" data-uid="ent0004" id="entity_OTP"><rect fill="#FFFFFF" filter="url(#f1ky7mzv5846kv)" height="150.4063" rx="2.5" ry="2.5" style="stroke:#2E7D32;stroke-width:0.5;" width="282.1494" x="346.93" y="91.7569"/><ellipse cx="441.8841" cy="108.3975" fill="#ADD1B2" rx="9" ry="9" style="stroke:#181818;stroke-width:1;"/><path d="M443.7747,112.3975 L438.7904,112.3975 L438.7904,104.3819 L443.7747,104.3819 L443.7747,105.7725 L440.3685,105.7725 L440.3685,107.5069 L443.4622,107.5069 L443.4622,108.8975 L440.3685,108.8975 L440.3685,111.0069 L443.7747,111.0069 L443.7747,112.3975 Z " fill="#000000"/><text fill="#424242" font-family="sans-serif" font-size="10" font-weight="bold" lengthAdjust="spacing" textLength="22.6514" x="490.429" y="106.0391">OTP</text><text fill="#424242" font-family="sans-serif" font-size="10" font-weight="bold" lengthAdjust="spacing" textLength="84.7412" x="459.3841" y="117.6797">(&#1705;&#1583; &#1740;&#1705;&#1576;&#1575;&#1585; &#1605;&#1589;&#1585;&#1601;)</text><line style="stroke:#2E7D32;stroke-width:0.5;" x1="347.93" x2="628.0794" y1="125.0381" y2="125.0381"/><ellipse cx="357.93" cy="136.3584" fill="#000000" rx="3" ry="3" style="stroke:#000000;stroke-width:1;"/><text fill="#424242" font-family="sans-serif" font-size="10" lengthAdjust="spacing" textLength="97.0996" x="364.93" y="138.3204">id : BIGINT &#171;PK, AI&#187;</text><line style="stroke:#2E7D32;stroke-width:1;" x1="347.93" x2="628.0794" y1="144.6788" y2="144.6788"/><ellipse cx="357.93" cy="155.9991" fill="#000000" rx="3" ry="3" style="stroke:#000000;stroke-width:1;"/><text fill="#424242" font-family="sans-serif" font-size="10" lengthAdjust="spacing" textLength="258.1494" x="364.93" y="157.961">phone_number : VARCHAR(20) &#171;INDEX, NOT NULL&#187;</text><ellipse cx="357.93" cy="167.6397" fill="#000000" rx="3" ry="3" style="stroke:#000000;stroke-width:1;"/><text fill="#424242" font-family="sans-serif" font-size="10" lengthAdjust="spacing" textLength="162.9248" x="364.93" y="169.6016">code : VARCHAR(5) &#171;NOT NULL&#187;</text><ellipse cx="357.93" cy="179.2803" fill="#000000" rx="3" ry="3" style="stroke:#000000;stroke-width:1;"/><text fill="#424242" font-family="sans-serif" font-size="10" lengthAdjust="spacing" textLength="185.4004" x="364.93" y="181.2422">expires_at : TIMESTAMP &#171;NOT NULL&#187;</text><ellipse cx="357.93" cy="190.9209" fill="#000000" rx="3" ry="3" style="stroke:#000000;stroke-width:1;"/><text fill="#424242" font-family="sans-serif" font-size="10" lengthAdjust="spacing" textLength="193.9795" x="364.93" y="192.8829">is_used : BOOLEAN &#171;DEFAULT: FALSE&#187;</text><ellipse cx="357.93" cy="202.5616" fill="#000000" rx="3" ry="3" style="stroke:#000000;stroke-width:1;"/><text fill="#424242" font-family="sans-serif" font-size="10" lengthAdjust="spacing" textLength="121.0449" x="364.93" y="204.5235">created_at : TIMESTAMP</text><line style="stroke:#2E7D32;stroke-width:1;" x1="347.93" x2="628.0794" y1="210.8819" y2="210.8819"/><text fill="#424242" font-family="sans-serif" font-size="10" font-weight="bold" lengthAdjust="spacing" textLength="47.9639" x="352.93" y="224.1641">Indexes:</text><text fill="#424242" font-family="sans-serif" font-size="10" lengthAdjust="spacing" textLength="116.7529" x="352.93" y="235.8047">idx_otp_phone_number</text></g><!--class Chat--><g class="entity" data-entity="Chat" data-source-line="90" data-uid="ent0005" id="entity_Chat"><rect fill="#FFFFFF" filter="url(#f1ky7mzv5846kv)" height="263.1719" rx="2.5" ry="2.5" style="stroke:#2E7D32;stroke-width:0.5;" width="232.4424" x="50.78" y="319.6169"/><ellipse cx="149.7844" cy="336.2575" fill="#ADD1B2" rx="9" ry="9" style="stroke:#181818;stroke-width:1;"/><path d="M151.675,340.2575 L146.6906,340.2575 L146.6906,332.2419 L151.675,332.2419 L151.675,333.6325 L148.2688,333.6325 L148.2688,335.3669 L151.3625,335.3669 L151.3625,336.7575 L148.2688,336.7575 L148.2688,338.8669 L151.675,338.8669 L151.675,340.2575 Z " fill="#000000"/><text fill="#424242" font-family="sans-serif" font-size="10" font-weight="bold" lengthAdjust="spacing" textLength="25.9863" x="167.758" y="333.8991">Chat</text><text fill="#424242" font-family="sans-serif" font-size="10" font-weight="bold" lengthAdjust="spacing" textLength="26.9336" x="167.2844" y="345.5397">(&#1670;&#1578;)</text><line style="stroke:#2E7D32;stroke-width:0.5;" x1="51.78" x2="282.2224" y1="352.8981" y2="352.8981"/><ellipse cx="61.78" cy="364.2184" fill="#000000" rx="3" ry="3" style="stroke:#000000;stroke-width:1;"/><text fill="#424242" font-family="sans-serif" font-size="10" lengthAdjust="spacing" textLength="97.0996" x="68.78" y="366.1804">id : BIGINT &#171;PK, AI&#187;</text><line style="stroke:#2E7D32;stroke-width:1;" x1="51.78" x2="282.2224" y1="372.5388" y2="372.5388"/><ellipse cx="61.78" cy="383.8591" fill="#000000" rx="3" ry="3" style="stroke:#000000;stroke-width:1;"/><text fill="#424242" font-family="sans-serif" font-size="10" lengthAdjust="spacing" textLength="208.4424" x="68.78" y="385.821">user1_id : BIGINT &#171;FK, INDEX, NOT NULL&#187;</text><ellipse cx="61.78" cy="395.4997" fill="#000000" rx="3" ry="3" style="stroke:#000000;stroke-width:1;"/><text fill="#424242" font-family="sans-serif" font-size="10" lengthAdjust="spacing" textLength="208.4424" x="68.78" y="397.4616">user2_id : BIGINT &#171;FK, INDEX, NOT NULL&#187;</text><text fill="#424242" font-family="sans-serif" font-size="10" lengthAdjust="spacing" textLength="185.9521" x="68.78" y="409.1022">last_message_id : BIGINT &#171;FK, NULL&#187;</text><text fill="#424242" font-family="sans-serif" font-size="10" lengthAdjust="spacing" textLength="192.0703" x="68.78" y="420.7429">last_message_at : TIMESTAMP &#171;NULL&#187;</text><ellipse cx="61.78" cy="430.4216" fill="#000000" rx="3" ry="3" style="stroke:#000000;stroke-width:1;"/><text fill="#424242" font-family="sans-serif" font-size="10" lengthAdjust="spacing" textLength="121.0449" x="68.78" y="432.3835">created_at : TIMESTAMP</text><ellipse cx="61.78" cy="442.0622" fill="#000000" rx="3" ry="3" style="stroke:#000000;stroke-width:1;"/><text fill="#424242" font-family="sans-serif" font-size="10" lengthAdjust="spacing" textLength="124.3164" x="68.78" y="444.0241">updated_at : TIMESTAMP</text><line style="stroke:#2E7D32;stroke-width:1;" x1="51.78" x2="282.2224" y1="450.3825" y2="450.3825"/><text fill="#424242" font-family="sans-serif" font-size="10" font-weight="bold" lengthAdjust="spacing" textLength="47.9639" x="56.78" y="463.6647">Indexes:</text><text fill="#424242" font-family="sans-serif" font-size="10" lengthAdjust="spacing" textLength="75.1025" x="56.78" y="475.3054">idx_chat_user1</text><text fill="#424242" font-family="sans-serif" font-size="10" lengthAdjust="spacing" textLength="75.1025" x="56.78" y="486.946">idx_chat_user2</text><text fill="#424242" font-family="sans-serif" font-size="10" font-weight="bold" lengthAdjust="spacing" textLength="43.7256" x="56.78" y="498.5866">Unique:</text><text fill="#424242" font-family="sans-serif" font-size="10" lengthAdjust="spacing" textLength="98.7598" x="56.78" y="510.2272">(user1_id, user2_id)</text><text fill="#424242" font-family="sans-serif" font-size="10" lengthAdjust="spacing" textLength="139.5068" x="56.78" y="521.8679">WHERE user1_id &lt; user2_id</text><line style="stroke:#2E7D32;stroke-width:1;" x1="51.78" x2="282.2224" y1="528.2263" y2="528.2263"/><text fill="#424242" font-family="sans-serif" font-size="10" font-weight="bold" lengthAdjust="spacing" textLength="67.1094" x="56.78" y="541.5085">References:</text><text fill="#424242" font-family="sans-serif" font-size="10" lengthAdjust="spacing" textLength="88.3789" x="56.78" y="553.1491">User.id (user1_id)</text><text fill="#424242" font-family="sans-serif" font-size="10" lengthAdjust="spacing" textLength="88.3789" x="56.78" y="564.7897">User.id (user2_id)</text><text fill="#424242" font-family="sans-serif" font-size="10" lengthAdjust="spacing" textLength="149.2188" x="56.78" y="576.4304">Message.id (last_message_id)</text></g><!--class Message--><g class="entity" data-entity="Message" data-source-line="113" data-uid="ent0006" id="entity_Message"><rect fill="#FFFFFF" filter="url(#f1ky7mzv5846kv)" height="298.0938" rx="2.5" ry="2.5" style="stroke:#2E7D32;stroke-width:0.5;" width="300.1914" x="168.9" y="642.7969"/><ellipse cx="290.5826" cy="659.4375" fill="#ADD1B2" rx="9" ry="9" style="stroke:#181818;stroke-width:1;"/><path d="M292.4732,663.4375 L287.4889,663.4375 L287.4889,655.4219 L292.4732,655.4219 L292.4732,656.8125 L289.067,656.8125 L289.067,658.5469 L292.1607,658.5469 L292.1607,659.9375 L289.067,659.9375 L289.067,662.0469 L292.4732,662.0469 L292.4732,663.4375 Z " fill="#000000"/><text fill="#424242" font-family="sans-serif" font-size="10" font-weight="bold" lengthAdjust="spacing" textLength="49.3262" x="308.0826" y="657.0791">Message</text><text fill="#424242" font-family="sans-serif" font-size="10" font-weight="bold" lengthAdjust="spacing" textLength="28.0615" x="318.7149" y="668.7197">(&#1662;&#1740;&#1575;&#1605;)</text><line style="stroke:#2E7D32;stroke-width:0.5;" x1="169.9" x2="468.0914" y1="676.0781" y2="676.0781"/><ellipse cx="179.9" cy="687.3984" fill="#000000" rx="3" ry="3" style="stroke:#000000;stroke-width:1;"/><text fill="#424242" font-family="sans-serif" font-size="10" lengthAdjust="spacing" textLength="97.0996" x="186.9" y="689.3604">id : BIGINT &#171;PK, AI&#187;</text><line style="stroke:#2E7D32;stroke-width:1;" x1="169.9" x2="468.0914" y1="695.7188" y2="695.7188"/><ellipse cx="179.9" cy="707.0391" fill="#000000" rx="3" ry="3" style="stroke:#000000;stroke-width:1;"/><text fill="#424242" font-family="sans-serif" font-size="10" lengthAdjust="spacing" textLength="202.1533" x="186.9" y="709.001">chat_id : BIGINT &#171;FK, INDEX, NOT NULL&#187;</text><ellipse cx="179.9" cy="718.6797" fill="#000000" rx="3" ry="3" style="stroke:#000000;stroke-width:1;"/><text fill="#424242" font-family="sans-serif" font-size="10" lengthAdjust="spacing" textLength="214.5801" x="186.9" y="720.6416">sender_id : BIGINT &#171;FK, INDEX, NOT NULL&#187;</text><text fill="#424242" font-family="sans-serif" font-size="10" lengthAdjust="spacing" textLength="114.7559" x="186.9" y="732.2822">content : TEXT &#171;NULL&#187;</text><ellipse cx="179.9" cy="741.9609" fill="#000000" rx="3" ry="3" style="stroke:#000000;stroke-width:1;"/><text fill="#424242" font-family="sans-serif" font-size="10" lengthAdjust="spacing" textLength="276.1914" x="186.9" y="743.9229">message_type : VARCHAR(20) &#171;ENUM: text|image|file&#187;</text><text fill="#424242" font-family="sans-serif" font-size="10" lengthAdjust="spacing" textLength="169.8584" x="186.9" y="755.5635">file_path : VARCHAR(255) &#171;NULL&#187;</text><ellipse cx="179.9" cy="765.2422" fill="#000000" rx="3" ry="3" style="stroke:#000000;stroke-width:1;"/><text fill="#424242" font-family="sans-serif" font-size="10" lengthAdjust="spacing" textLength="192.6709" x="186.9" y="767.2041">is_read : BOOLEAN &#171;DEFAULT: FALSE&#187;</text><ellipse cx="179.9" cy="776.8828" fill="#000000" rx="3" ry="3" style="stroke:#000000;stroke-width:1;"/><text fill="#424242" font-family="sans-serif" font-size="10" lengthAdjust="spacing" textLength="222.4463" x="186.9" y="778.8447">read_by_user_id : BIGINT &#171;FK, NULL, INDEX&#187;</text><ellipse cx="179.9" cy="788.5234" fill="#000000" rx="3" ry="3" style="stroke:#000000;stroke-width:1;"/><text fill="#424242" font-family="sans-serif" font-size="10" lengthAdjust="spacing" textLength="146.8311" x="186.9" y="790.4854">read_at : TIMESTAMP &#171;NULL&#187;</text><ellipse cx="179.9" cy="800.1641" fill="#000000" rx="3" ry="3" style="stroke:#000000;stroke-width:1;"/><text fill="#424242" font-family="sans-serif" font-size="10" lengthAdjust="spacing" textLength="167.7588" x="186.9" y="802.126">created_at : TIMESTAMP &#171;INDEX&#187;</text><ellipse cx="179.9" cy="811.8047" fill="#000000" rx="3" ry="3" style="stroke:#000000;stroke-width:1;"/><text fill="#424242" font-family="sans-serif" font-size="10" lengthAdjust="spacing" textLength="124.3164" x="186.9" y="813.7666">updated_at : TIMESTAMP</text><line style="stroke:#2E7D32;stroke-width:1;" x1="169.9" x2="468.0914" y1="820.125" y2="820.125"/><text fill="#424242" font-family="sans-serif" font-size="10" font-weight="bold" lengthAdjust="spacing" textLength="47.9639" x="174.9" y="833.4072">Indexes:</text><text fill="#424242" font-family="sans-serif" font-size="10" lengthAdjust="spacing" textLength="91.8701" x="174.9" y="845.0479">idx_message_chat</text><text fill="#424242" font-family="sans-serif" font-size="10" lengthAdjust="spacing" textLength="104.2969" x="174.9" y="856.6885">idx_message_sender</text><text fill="#424242" font-family="sans-serif" font-size="10" lengthAdjust="spacing" textLength="123.3447" x="174.9" y="868.3291">idx_message_created_at</text><text fill="#424242" font-family="sans-serif" font-size="10" lengthAdjust="spacing" textLength="109.9902" x="174.9" y="879.9697">idx_message_read_by</text><line style="stroke:#2E7D32;stroke-width:1;" x1="169.9" x2="468.0914" y1="886.3281" y2="886.3281"/><text fill="#424242" font-family="sans-serif" font-size="10" font-weight="bold" lengthAdjust="spacing" textLength="67.1094" x="174.9" y="899.6104">References:</text><text fill="#424242" font-family="sans-serif" font-size="10" lengthAdjust="spacing" textLength="35.6738" x="174.9" y="911.251">Chat.id</text><text fill="#424242" font-family="sans-serif" font-size="10" lengthAdjust="spacing" textLength="94.5166" x="174.9" y="922.8916">User.id (sender_id)</text><text fill="#424242" font-family="sans-serif" font-size="10" lengthAdjust="spacing" textLength="127.0215" x="174.9" y="934.5322">User.id (read_by_user_id)</text></g><g class="entity" data-entity="GMN13" data-source-line="149" data-uid="ent0014" id="entity_GMN13"><path d="M664.4,145.2469 L664.4,188.6609 A2.5,2.5 0 0 0 666.9,191.1609 L819.0948,191.1609 A2.5,2.5 0 0 0 821.5948,188.6609 L821.5948,152.7469 L811.5948,142.7469 L666.9,142.7469 A2.5,2.5 0 0 0 664.4,145.2469" fill="#FFF9C4" filter="url(#f1ky7mzv5846kv)" style="stroke:#F57C00;stroke-width:0.5;"/><path d="M811.5948,142.7469 L811.5948,151.4969 A1.25,1.25 0 0 0 812.8448,152.7469 L821.5948,152.7469 L811.5948,142.7469" fill="#FFF9C4" style="stroke:#F57C00;stroke-width:1;"/><text fill="#000000" font-family="'Arial'" font-size="11" font-weight="bold" lengthAdjust="spacing" textLength="65.5059" x="670.4" y="157.9573">&#1605;&#1581;&#1583;&#1608;&#1583;&#1740;&#1578;&#8204;&#1607;&#1575;:</text><text fill="#000000" font-family="'Arial'" font-size="11" lengthAdjust="spacing" textLength="136.1948" x="670.4" y="170.762">- phone_number &#1740;&#1705;&#1578;&#1575; &#1575;&#1587;&#1578;</text><text fill="#000000" font-family="'Arial'" font-size="11" lengthAdjust="spacing" textLength="108.5283" x="670.4" y="183.5667">- username &#1740;&#1705;&#1578;&#1575; &#1575;&#1587;&#1578;</text></g><g class="entity" data-entity="GMN16" data-source-line="155" data-uid="ent0017" id="entity_GMN16"><path d="M661.11,423.0969 L661.11,447.8869 L283.48,451.8869 L661.11,455.8869 L661.11,479.3156 A2.5,2.5 0 0 0 663.61,481.8156 L842.3917,481.8156 A2.5,2.5 0 0 0 844.8917,479.3156 L844.8917,430.5969 L834.8917,420.5969 L663.61,420.5969 A2.5,2.5 0 0 0 661.11,423.0969" fill="#FFF9C4" filter="url(#f1ky7mzv5846kv)" style="stroke:#F57C00;stroke-width:0.5;"/><path d="M834.8917,420.5969 L834.8917,429.3469 A1.25,1.25 0 0 0 836.1417,430.5969 L844.8917,430.5969 L834.8917,420.5969" fill="#FFF9C4" style="stroke:#F57C00;stroke-width:0.5;"/><text fill="#000000" font-family="'Arial'" font-size="11" font-weight="bold" lengthAdjust="spacing" textLength="65.5059" x="667.11" y="435.8073">&#1605;&#1581;&#1583;&#1608;&#1583;&#1740;&#1578;&#8204;&#1607;&#1575;:</text><text fill="#000000" font-family="'Arial'" font-size="11" lengthAdjust="spacing" textLength="162.7817" x="667.11" y="448.612">- UNIQUE (user1_id, user2_id)</text><text fill="#000000" font-family="'Arial'" font-size="11" lengthAdjust="spacing" textLength="153.4575" x="667.11" y="461.4167">WHERE user1_id &lt; user2_id</text><text fill="#000000" font-family="'Arial'" font-size="11" lengthAdjust="spacing" textLength="147.4312" x="667.11" y="474.2214">- &#1607;&#1585; &#1583;&#1608; &#1705;&#1575;&#1585;&#1576;&#1585; &#1601;&#1602;&#1591; &#1740;&#1705; &#1670;&#1578; &#1583;&#1575;&#1585;&#1606;&#1583;</text></g><g class="entity" data-entity="GMN19" data-source-line="162" data-uid="ent0020" id="entity_GMN19"><path d="M660.51,727.7169 L660.51,787.8869 L469.54,791.8869 L660.51,795.8869 L660.51,855.9591 A2.5,2.5 0 0 0 663.01,858.4591 L828.9871,858.4591 A2.5,2.5 0 0 0 831.4871,855.9591 L831.4871,735.2169 L821.4871,725.2169 L663.01,725.2169 A2.5,2.5 0 0 0 660.51,727.7169" fill="#FFF9C4" filter="url(#f1ky7mzv5846kv)" style="stroke:#F57C00;stroke-width:0.5;"/><path d="M821.4871,725.2169 L821.4871,733.9669 A1.25,1.25 0 0 0 822.7371,735.2169 L831.4871,735.2169 L821.4871,725.2169" fill="#FFF9C4" style="stroke:#F57C00;stroke-width:0.5;"/><text fill="#000000" font-family="'Arial'" font-size="11" font-weight="bold" lengthAdjust="spacing" textLength="55.1235" x="666.51" y="740.4273">&#1575;&#1606;&#1608;&#1575;&#1593; &#1662;&#1740;&#1575;&#1605;:</text><text fill="#000000" font-family="'Arial'" font-size="11" lengthAdjust="spacing" textLength="78.3105" x="666.51" y="753.232">- text: &#1662;&#1740;&#1575;&#1605; &#1605;&#1578;&#1606;&#1740;</text><text fill="#000000" font-family="'Arial'" font-size="11" lengthAdjust="spacing" textLength="76.3447" x="666.51" y="766.0367">- image: &#1578;&#1589;&#1608;&#1740;&#1585;</text><text fill="#000000" font-family="'Arial'" font-size="11" lengthAdjust="spacing" textLength="51.4229" x="666.51" y="778.8414">- file: &#1601;&#1575;&#1740;&#1604;</text><line style="stroke:#F57C00;stroke-width:1;" x1="661.51" x2="830.4871" y1="781.4356" y2="781.4356"/><text fill="#000000" font-family="'Arial'" font-size="11" font-weight="bold" lengthAdjust="spacing" textLength="70.3613" x="666.51" y="795.6461">&#1582;&#1608;&#1575;&#1606;&#1583;&#1607; &#1588;&#1583;&#1606;:</text><text fill="#000000" font-family="'Arial'" font-size="11" lengthAdjust="spacing" textLength="149.9771" x="666.51" y="808.4508">- read_by_user_id: &#1705;&#1575;&#1585;&#1576;&#1585;&#1740; &#1705;&#1607;</text><text fill="#000000" font-family="'Arial'" font-size="11" lengthAdjust="spacing" textLength="62.0415" x="666.51" y="821.2554">&#1662;&#1740;&#1575;&#1605; &#1585;&#1575; &#1582;&#1608;&#1575;&#1606;&#1583;&#1607;</text><text fill="#000000" font-family="'Arial'" font-size="11" lengthAdjust="spacing" textLength="114.8179" x="666.51" y="834.0601">- read_at: &#1586;&#1605;&#1575;&#1606; &#1582;&#1608;&#1575;&#1606;&#1583;&#1606;</text><text fill="#000000" font-family="'Arial'" font-size="11" lengthAdjust="spacing" textLength="148.2476" x="666.51" y="846.8648">- is_read: &#1608;&#1590;&#1593;&#1740;&#1578; &#1582;&#1608;&#1575;&#1606;&#1583;&#1607; &#1588;&#1583;&#1606;</text></g><g class="entity" data-entity="GMN22" data-source-line="175" data-uid="ent0023" id="entity_GMN22"><path d="M856.39,132.4469 L856.39,193.8869 L629.56,197.8869 L856.39,201.8869 L856.39,201.4703 A2.5,2.5 0 0 0 858.89,203.9703 L969.1097,203.9703 A2.5,2.5 0 0 0 971.6097,201.4703 L971.6097,139.9469 L961.6097,129.9469 L858.89,129.9469 A2.5,2.5 0 0 0 856.39,132.4469" fill="#FFF9C4" filter="url(#f1ky7mzv5846kv)" style="stroke:#F57C00;stroke-width:0.5;"/><path d="M961.6097,129.9469 L961.6097,138.6969 A1.25,1.25 0 0 0 962.8597,139.9469 L971.6097,139.9469 L961.6097,129.9469" fill="#FFF9C4" style="stroke:#F57C00;stroke-width:0.5;"/><text fill="#000000" font-family="'Arial'" font-size="11" font-weight="bold" lengthAdjust="spacing" textLength="65.5059" x="862.39" y="145.1573">&#1605;&#1581;&#1583;&#1608;&#1583;&#1740;&#1578;&#8204;&#1607;&#1575;:</text><text fill="#000000" font-family="'Arial'" font-size="11" lengthAdjust="spacing" textLength="94.2197" x="862.39" y="157.962">- &#1607;&#1585; OTP &#1601;&#1602;&#1591; &#1740;&#1705;&#1576;&#1575;&#1585;</text><text fill="#000000" font-family="'Arial'" font-size="11" lengthAdjust="spacing" textLength="85.2393" x="862.39" y="170.7667">&#1602;&#1575;&#1576;&#1604; &#1575;&#1587;&#1578;&#1601;&#1575;&#1583;&#1607; &#1575;&#1587;&#1578;</text><text fill="#000000" font-family="'Arial'" font-size="11" lengthAdjust="spacing" textLength="58.5664" x="862.39" y="183.5714">- &#1705;&#1583; 5 &#1585;&#1602;&#1605;&#1740;</text><text fill="#000000" font-family="'Arial'" font-size="11" lengthAdjust="spacing" textLength="74.6743" x="862.39" y="196.3761">- &#1575;&#1606;&#1602;&#1590;&#1575;: 5 &#1583;&#1602;&#1740;&#1602;&#1607;</text></g><!--link User to Chat--><g class="link" data-entity-1="User" data-entity-2="Chat" data-source-line="141" data-uid="lnk7" id="link_User_Chat"><path codeLine="141" d="M128.26,268.0269 C128.26,286.9769 128.26,281.2469 128.26,301.2469" fill="none" id="User-Chat" style="stroke:#1976D2;stroke-width:2;"/><line style="stroke:#1976D2;stroke-width:2;" x1="124.26" x2="132.26" y1="264.0269" y2="264.0269"/><line style="stroke:#1976D2;stroke-width:2;" x1="124.26" x2="132.26" y1="267.0269" y2="267.0269"/><line style="stroke:#1976D2;stroke-width:2;" x1="128.26" x2="128.26" y1="268.0269" y2="260.0269"/><line style="stroke:#1976D2;stroke-width:2;" x1="128.26" x2="134.26" y1="311.2469" y2="319.2469"/><line style="stroke:#1976D2;stroke-width:2;" x1="128.26" x2="122.26" y1="311.2469" y2="319.2469"/><line style="stroke:#1976D2;stroke-width:2;" x1="128.26" x2="128.26" y1="311.2469" y2="319.2469"/><ellipse cx="128.26" cy="305.2469" fill="none" rx="4" ry="4" style="stroke:#1976D2;stroke-width:2;"/><text fill="#000000" font-family="'Arial'" font-size="11" lengthAdjust="spacing" textLength="30.9912" x="97.26" y="273.8473">user1</text><text fill="#000000" font-family="'Arial'" font-size="11" lengthAdjust="spacing" textLength="27.5161" x="98.9975" y="286.652">(N:1)</text></g><!--link User to Chat--><g class="link" data-entity-1="User" data-entity-2="Chat" data-source-line="142" data-uid="lnk8" id="link_User_Chat"><path codeLine="142" d="M205.74,268.0269 C205.74,286.9769 205.74,281.2469 205.74,301.2469" fill="none" id="User-Chat-1" style="stroke:#1976D2;stroke-width:2;"/><line style="stroke:#1976D2;stroke-width:2;" x1="201.74" x2="209.74" y1="264.0269" y2="264.0269"/><line style="stroke:#1976D2;stroke-width:2;" x1="201.74" x2="209.74" y1="267.0269" y2="267.0269"/><line style="stroke:#1976D2;stroke-width:2;" x1="205.74" x2="205.74" y1="268.0269" y2="260.0269"/><line style="stroke:#1976D2;stroke-width:2;" x1="205.74" x2="211.74" y1="311.2469" y2="319.2469"/><line style="stroke:#1976D2;stroke-width:2;" x1="205.74" x2="199.74" y1="311.2469" y2="319.2469"/><line style="stroke:#1976D2;stroke-width:2;" x1="205.74" x2="205.74" y1="311.2469" y2="319.2469"/><ellipse cx="205.74" cy="305.2469" fill="none" rx="4" ry="4" style="stroke:#1976D2;stroke-width:2;"/><text fill="#000000" font-family="'Arial'" font-size="11" lengthAdjust="spacing" textLength="30.9912" x="174.74" y="273.8473">user2</text><text fill="#000000" font-family="'Arial'" font-size="11" lengthAdjust="spacing" textLength="27.5161" x="176.4775" y="286.652">(N:1)</text></g><!--link User to Message--><g class="link" data-entity-1="User" data-entity-2="Message" data-source-line="143" data-uid="lnk9" id="link_User_Message"><path codeLine="143" d="M292.83,267.8369 C292.83,368.7269 292.83,505.3769 292.83,624.3069" fill="none" id="User-Message" style="stroke:#1976D2;stroke-width:2;"/><line style="stroke:#1976D2;stroke-width:2;" x1="288.83" x2="296.83" y1="263.8369" y2="263.8369"/><line style="stroke:#1976D2;stroke-width:2;" x1="288.83" x2="296.83" y1="266.8369" y2="266.8369"/><line style="stroke:#1976D2;stroke-width:2;" x1="292.83" x2="292.83" y1="267.8369" y2="259.8369"/><line style="stroke:#1976D2;stroke-width:2;" x1="292.83" x2="298.83" y1="634.3069" y2="642.3069"/><line style="stroke:#1976D2;stroke-width:2;" x1="292.83" x2="286.83" y1="634.3069" y2="642.3069"/><line style="stroke:#1976D2;stroke-width:2;" x1="292.83" x2="292.83" y1="634.3069" y2="642.3069"/><ellipse cx="292.83" cy="628.3069" fill="none" rx="4" ry="4" style="stroke:#1976D2;stroke-width:2;"/><text fill="#000000" font-family="'Arial'" font-size="11" lengthAdjust="spacing" textLength="32.1836" x="293.83" y="435.2773">sends</text><text fill="#000000" font-family="'Arial'" font-size="11" lengthAdjust="spacing" textLength="27.5161" x="296.1637" y="448.082">(N:1)</text></g><!--link User to Message--><g class="link" data-entity-1="User" data-entity-2="Message" data-source-line="144" data-uid="lnk10" id="link_User_Message"><path codeLine="144" d="M302.44,267.8369 C302.44,368.7269 302.44,505.3769 302.44,624.3069" fill="none" id="User-Message-1" style="stroke:#1976D2;stroke-width:2;"/><line style="stroke:#1976D2;stroke-width:2;" x1="298.44" x2="306.44" y1="263.8369" y2="263.8369"/><line style="stroke:#1976D2;stroke-width:2;" x1="298.44" x2="306.44" y1="266.8369" y2="266.8369"/><line style="stroke:#1976D2;stroke-width:2;" x1="302.44" x2="302.44" y1="267.8369" y2="259.8369"/><line style="stroke:#1976D2;stroke-width:2;" x1="302.44" x2="308.44" y1="634.3069" y2="642.3069"/><line style="stroke:#1976D2;stroke-width:2;" x1="302.44" x2="296.44" y1="634.3069" y2="642.3069"/><line style="stroke:#1976D2;stroke-width:2;" x1="302.44" x2="302.44" y1="634.3069" y2="642.3069"/><ellipse cx="302.44" cy="628.3069" fill="none" rx="4" ry="4" style="stroke:#1976D2;stroke-width:2;"/><text fill="#000000" font-family="'Arial'" font-size="11" lengthAdjust="spacing" textLength="30.7441" x="303.44" y="462.2773">reads</text><text fill="#000000" font-family="'Arial'" font-size="11" lengthAdjust="spacing" textLength="27.5161" x="305.054" y="475.082">(N:1)</text></g><!--link Chat to Message--><g class="link" data-entity-1="Chat" data-entity-2="Message" data-source-line="145" data-uid="lnk11" id="link_Chat_Message"><path codeLine="145" d="M207.01,590.9069 C207.01,610.3769 207.01,604.5569 207.01,624.3569" fill="none" id="Chat-Message" style="stroke:#1976D2;stroke-width:2;"/><line style="stroke:#1976D2;stroke-width:2;" x1="203.01" x2="211.01" y1="586.9069" y2="586.9069"/><line style="stroke:#1976D2;stroke-width:2;" x1="203.01" x2="211.01" y1="589.9069" y2="589.9069"/><line style="stroke:#1976D2;stroke-width:2;" x1="207.01" x2="207.01" y1="590.9069" y2="582.9069"/><line style="stroke:#1976D2;stroke-width:2;" x1="207.01" x2="213.01" y1="634.3569" y2="642.3569"/><line style="stroke:#1976D2;stroke-width:2;" x1="207.01" x2="201.01" y1="634.3569" y2="642.3569"/><line style="stroke:#1976D2;stroke-width:2;" x1="207.01" x2="207.01" y1="634.3569" y2="642.3569"/><ellipse cx="207.01" cy="628.3569" fill="none" rx="4" ry="4" style="stroke:#1976D2;stroke-width:2;"/><text fill="#000000" font-family="'Arial'" font-size="11" lengthAdjust="spacing" textLength="46.562" x="160.01" y="596.8373">contains</text><text fill="#000000" font-family="'Arial'" font-size="11" lengthAdjust="spacing" textLength="27.5161" x="169.5329" y="609.642">(1:N)</text></g><!--link Chat to Message--><g class="link" data-entity-1="Chat" data-entity-2="Message" data-source-line="146" data-uid="lnk12" id="link_Chat_Message"><path codeLine="146" d="M245.12,600.9069 C245.12,620.3769 245.12,614.5569 245.12,634.3569" fill="none" id="Chat-Message-1" style="stroke:#1976D2;stroke-width:2;"/><line style="stroke:#1976D2;stroke-width:2;" x1="245.12" x2="239.12" y1="590.9069" y2="582.9069"/><line style="stroke:#1976D2;stroke-width:2;" x1="245.12" x2="251.12" y1="590.9069" y2="582.9069"/><line style="stroke:#1976D2;stroke-width:2;" x1="245.12" x2="245.12" y1="590.9069" y2="582.9069"/><ellipse cx="245.12" cy="596.9069" fill="none" rx="4" ry="4" style="stroke:#1976D2;stroke-width:2;"/><line style="stroke:#1976D2;stroke-width:2;" x1="249.12" x2="241.12" y1="638.3569" y2="638.3569"/><line style="stroke:#1976D2;stroke-width:2;" x1="249.12" x2="241.12" y1="635.3569" y2="635.3569"/><line style="stroke:#1976D2;stroke-width:2;" x1="245.12" x2="245.12" y1="634.3569" y2="642.3569"/><text fill="#000000" font-family="'Arial'" font-size="11" lengthAdjust="spacing" textLength="74.7764" x="170.12" y="623.8373">last_message</text><text fill="#000000" font-family="'Arial'" font-size="11" lengthAdjust="spacing" textLength="27.5161" x="193.7501" y="636.642">(N:1)</text></g><!--link User to GMN13--><g class="link" data-entity-1="User" data-entity-2="GMN13" data-source-line="149" data-uid="lnk15" id="link_User_GMN13"><path d="M312.35,251.8869 C482.98,251.8869 743,251.8869 743,251.8869 C743,251.8869 743,216.6069 743,191.5269" fill="none" id="User-GMN13" style="stroke:#1976D2;stroke-width:2;stroke-dasharray:7,7;"/></g><g class="legend" data-source-line="182"><rect fill="#F5F5F5" height="95.4844" rx="2.5" ry="2.5" style="stroke:#424242;stroke-width:1;" width="118.335" x="834.2748" y="974.8869"/><text fill="#000000" font-family="'Arial'" font-size="10" font-weight="bold" lengthAdjust="spacing" textLength="34.0332" x="839.2748" y="991.1691">&#1606;&#1605;&#1575;&#1583;&#1607;&#1575;:</text><text fill="#000000" font-family="'Arial'" font-size="10" font-weight="bold" lengthAdjust="spacing" textLength="15.0781" x="839.2748" y="1002.8097">PK</text><text fill="#000000" font-family="'Arial'" font-size="10" lengthAdjust="spacing" textLength="72.1826" x="857.5316" y="1002.8097">= Primary Key</text><text fill="#000000" font-family="'Arial'" font-size="10" font-weight="bold" lengthAdjust="spacing" textLength="14.5801" x="839.2748" y="1014.4504">FK</text><text fill="#000000" font-family="'Arial'" font-size="10" lengthAdjust="spacing" textLength="70.9619" x="857.0336" y="1014.4504">= Foreign Key</text><text fill="#000000" font-family="'Arial'" font-size="10" font-weight="bold" lengthAdjust="spacing" textLength="15.8691" x="839.2748" y="1026.091">UK</text><text fill="#000000" font-family="'Arial'" font-size="10" lengthAdjust="spacing" textLength="68.6377" x="858.3226" y="1026.091">= Unique Key</text><text fill="#000000" font-family="'Arial'" font-size="10" font-weight="bold" lengthAdjust="spacing" textLength="19.3262" x="839.2748" y="1037.7316">1:N</text><text fill="#000000" font-family="'Arial'" font-size="10" lengthAdjust="spacing" textLength="76.1865" x="861.7796" y="1037.7316">= One-to-Many</text><text fill="#000000" font-family="'Arial'" font-size="10" font-weight="bold" lengthAdjust="spacing" textLength="19.3262" x="839.2748" y="1049.3722">N:1</text><text fill="#000000" font-family="'Arial'" font-size="10" lengthAdjust="spacing" textLength="76.1865" x="861.7796" y="1049.3722">= Many-to-One</text><text fill="#000000" font-family="'Arial'" font-size="10" font-weight="bold" lengthAdjust="spacing" textLength="22.3193" x="839.2748" y="1061.0129">N:M</text><text fill="#000000" font-family="'Arial'" font-size="10" lengthAdjust="spacing" textLength="82.8369" x="864.7728" y="1061.0129">= Many-to-Many</text><line style="stroke:#000000;stroke-width:1;" x1="839.2748" x2="947.6097" y1="981.8869" y2="981.8869"/><line style="stroke:#000000;stroke-width:1;" x1="839.2748" x2="947.6097" y1="993.5275" y2="993.5275"/><line style="stroke:#000000;stroke-width:1;" x1="839.2748" x2="947.6097" y1="1005.1681" y2="1005.1681"/><line style="stroke:#000000;stroke-width:1;" x1="839.2748" x2="947.6097" y1="1016.8088" y2="1016.8088"/><line style="stroke:#000000;stroke-width:1;" x1="839.2748" x2="947.6097" y1="1028.4494" y2="1028.4494"/><line style="stroke:#000000;stroke-width:1;" x1="839.2748" x2="947.6097" y1="1040.09" y2="1040.09"/><line style="stroke:#000000;stroke-width:1;" x1="839.2748" x2="947.6097" y1="1051.7306" y2="1051.7306"/><line style="stroke:#000000;stroke-width:1;" x1="839.2748" x2="947.6097" y1="1063.3713" y2="1063.3713"/><line style="stroke:#000000;stroke-width:1;" x1="839.2748" x2="839.2748" y1="981.8869" y2="1063.3713"/><line style="stroke:#000000;stroke-width:1;" x1="947.6097" x2="947.6097" y1="981.8869" y2="1063.3713"/></g><!--SRC=[lLVRRY9747tdAthnGnRBR82OM3joB64OTf4DE1YIZHG93T0s8yCqwMcqTXPBiUNRW__3ZgN4SXmdsfTynqpybYz9TS-j6GPyqMgnP9YkKrtLfovTywA3jtG38xLMQEQhwzLQSwDMAkTgFw2vZBfK-2eJUp61s5JprKf1ODAlbxukH65o-RnQgQEvOdOfdqf505Pp-RKtjMgZKW2G-4I1ghM2MaDpYnd-5ukPExenqAZMHmEjlQDjO_GXXk2p2a_Rb0oDJfxq2ELc-PyZ8xI3gRCUtba0YiHWc_hF6AKNWsUsryEeHNgTsBvi5XjCPtjJh4OTReOBBj4IejxLspi6DasK2NaMF5UqFaRn7DMrNln1TpLAoNlNsx1vFuf2EjrqAjhqc1s3iEcXA1PVvnTdyE2aoZEizl0sDZgVDWKUPHUIbEqDC2AKTOaaCBjQXxpNZMt4w11BWZunIBjB2UoufVLCMIHSRXDgO8goqZhKWZRiiS2pj2HizpJJbBCZIXJaH3X_IsrY2CrKE5Uc9qd8mgDoFwmpimn2u1nZL6yD6PPZCmlZXjrh5N1EEFvoQmKieIIo_xa_joxiu_z-ERTkh5luUOAiM_lq_jm-NlwojHABUHqbNj2Orj9CZ3RRNTpNucw2kQKVRvYO_cYy_FTNwm9skhHk4d6acOWlkqZ-cKTw1obejVIc16rmUNbZRG7bIYihFY2Pz7yEGTNWsQQWxtAr_DjSxMKwcqg0LgDI-hQXIbfREZLPCmnEfH8-0dYP3PX7WounSDCOzblWSe3AI2ONKALQHvN6-hfaV439bjx3pO7UPaCg6yXaixA1DiKQmvscnW1JBvNLpNgkl241XeFEB8343GImP7JmBZOL4IPlNU_iDZblJVamarAFMY7P5__7WbcjRpYnl4Rtv_1roOEAx6Fhphgn3vp80kQPWNs0wbAbeBwBP1ee91sPu2p7HmBnxa2ds0nHEGsjcvmISO1gTLtDLG1OK8kvndfTGSNS-gOwxiNiG3uoJeGD9iCK4OnyLsCy6YVMbSCyNtWszJpqwUQuHX4qPh7ETJ9FqX7breTx4rf7XE8iz6J49fBWyzHH6sWMbPAENix8kpGC_QSX7j_afSVrWizWq0w-VwlMr20QopvaYfirl8KfDjfXJtc3VGKR-COIqQ9nwsM7R24DnIenBGzT7KX5xzPmqj5TVtP62aAVbf0c33ZGnfwY17SxWvFmX53VrQFIogD0p33XfgHM6cK5CRpBHdeVK2FUyiTk87u3QAmRQlzHXg3RG0O_kjjmRBErvtJkw5fo3pwfzjnYyjhmU1lu96NbqSp37YbmWXkjupiRANQPUc85yNRwIgexlspyB8iegL1GlAA1WVWB17Va6LoObzRV2BxkxAFxyvYOWqQZP99ySFgtWkAYOg6SAaew4P-Ao4GYlA8347VJV0Z4_Gr0Olz94AyHJJSuBgrKFDm-IIP78nadTmn_pvXusw7wTfSXiYMO4gJCpyFSy9jr3PnSGzkuWb7JFhKkbFbv8KwE3mDYtBYoBZXpjzQL2_57mR2Ol-Xmks7hUI-v7hJk37RJU_NiFWqJz2bCHdn_58o-o3wm3o7wt5l4xsq0S9bzObrFTTdbr_MQJ-8YYpxwCthWCsz3Yh_Evx8h-mIIp96A_gGWeEdEFWF8ZRlEMnHe7LWNCDqVnQG20NE_SsFSF_iKMN_2rqbWBfJhYdJI-tDui4y5qFS7H10WQKTv7mqyj_u0byMhHW0wyRntcYCuUcRzPNtaCKCHtasb4SRInmLU18uFiLAmd47NESqXBs7xoCqqJfjZNivBCI5dUS4VsiT-04Ji3i7x2uKBh-r38FmGQ0XyTj_HXTT2QmGD2hIE7IkWoLlKo1TjhF5dz0tQe11UkeVMy5uWBNhI8g5OtpR6fGrFwimeuqAeSrTQDN2IaMHPCoGnbBOhvkjS3Z1PN0w97NKuctF2_m40]--></g></svg>